<svg xmlns="http://www.w3.org/2000/svg" viewBox="0 0 53.07 53.07" height="64" width="64"><defs><clipPath id="a"><path style="fill:none" d="M0 0h53.07v53.07H0z"/></clipPath></defs><g data-name="Layer 2"><g data-name="Layer 1"><path style="fill:#d81c50" d="M0 0h53.07v53.07H0z"/><g style="clip-path:url(#a)"><path d="M13.83 4.78v43.1c8.41 0 26.39-6 26.39-21.55S22.24 4.78 13.83 4.78m2.77 3a32.1 32.1 0 0 1 12.13 4.32c5.79 3.6 8.73 8.4 8.73 14.26S34.52 37 28.72 40.59a32.1 32.1 0 0 1-12.12 4.33Z" style="fill:#fff"/><path d="M40.51 4.78c-8.41 0-26.39 6-26.39 21.55s18 21.55 26.39 21.55Zm-2.77 3v37.14a32.1 32.1 0 0 1-12.13-4.32c-5.79-3.6-8.73-8.39-8.73-14.26s2.94-10.66 8.73-14.26a32.1 32.1 0 0 1 12.13-4.33" style="fill:#fff"/></g><path style="fill:none;stroke:#fff;stroke-miterlimit:10;stroke-width:3.0320000648498535px" d="M14.12 26.33h26.1"/></g></g></svg>